<?xml version="1.0" encoding="UTF-8" standalone="no"?>
<!DOCTYPE svg PUBLIC "-//W3C//DTD SVG 1.1//EN" "http://www.w3.org/Graphics/SVG/1.1/DTD/svg11.dtd">
<svg width="100%" height="100%" viewBox="0 0 249 174" version="1.1" xmlns="http://www.w3.org/2000/svg" xmlns:xlink="http://www.w3.org/1999/xlink" xml:space="preserve" xmlns:serif="http://www.serif.com/" style="fill-rule:evenodd;clip-rule:evenodd;stroke-linejoin:round;stroke-miterlimit:2;">
    <g transform="matrix(1,0,0,1,-5695.82,-6171.8)">
        <g transform="matrix(0.714369,0,0,2.7947,2319.81,5133.71)">
            <g>
                <g transform="matrix(1.27213,0,0,0.325177,4572.4,355.947)">
                    <g>
                        <text x="119.557px" y="190.992px" style="font-family:'IBMPlexSansArabic-Regular', 'IBM Plex Sans Arabic', sans-serif;font-size:46.953px;fill:rgb(234,218,215);">A<tspan x="148.526px 174.632px 200.738px 226.28px 242.385px 258.302px 282.247px 307.79px 347.652px 371.598px " y="190.992px 190.992px 190.992px 190.992px 190.992px 190.992px 190.992px 190.992px 190.992px 190.992px ">bdurrahman</tspan></text>
                        <g transform="matrix(46.9526,0,0,46.9526,247.643,237.944)">
                        </g>
                        <text x="119.557px" y="237.944px" style="font-family:'IBMPlexSansArabic-Regular', 'IBM Plex Sans Arabic', sans-serif;font-size:46.953px;fill:rgb(234,218,215);">Z<tspan x="145.662px 169.608px 195.15px 205.762px 230.412px " y="237.944px 237.944px 237.944px 237.944px 237.944px ">ahier</tspan></text>
                    </g>
                </g>
                <g transform="matrix(0.475667,0,0,0.121588,814.488,207.306)">
                    <path d="M8531.95,1495.35L8700.86,1390.7C8701,1390.62 8701.07,1390.44 8701.02,1390.28C8700.98,1390.11 8700.83,1390 8700.66,1390L8512.93,1390L8512.93,1350L8700.66,1350C8718.7,1350 8734.55,1361.97 8739.49,1379.33C8744.43,1396.68 8737.26,1415.2 8721.92,1424.71L8706.33,1434.37L8552.93,1530L8552.93,1570L8512.93,1570L8512.93,1529.51C8512.93,1515.6 8520.12,1502.68 8531.95,1495.35ZM8562.93,1530L8562.93,1530L8740.87,1530L8740.87,1570L8602.92,1570L8562.93,1530.01L8562.93,1530L8562.93,1530ZM8262.93,1450L8262.93,1529.62C8262.93,1529.72 8262.97,1529.82 8263.04,1529.89C8263.11,1529.96 8263.21,1530 8263.31,1530L8422.94,1530L8422.93,1530L8422.93,1530L8422.93,1530.01L8382.94,1570L8263.31,1570C8252.6,1570 8242.33,1565.75 8234.76,1558.17C8227.19,1550.6 8222.93,1540.33 8222.93,1529.62L8222.93,1489.99L8262.92,1450L8262.93,1450L8262.93,1450L8262.93,1450ZM8252.93,1390L8252.93,1350L8432.55,1350C8443.26,1350 8453.53,1354.25 8461.1,1361.83C8468.68,1369.4 8472.93,1379.67 8472.93,1390.38L8472.93,1570L8432.93,1570L8432.93,1390.38C8432.93,1390.28 8432.89,1390.18 8432.82,1390.11C8432.75,1390.04 8432.65,1390 8432.55,1390L8252.93,1390Z" style="fill:rgb(222,196,189);"/>
                </g>
            </g>
        </g>
    </g>
</svg>
